PathFileType	4	(X/Y/Z)	C:\Users\WrightLab\Desktop\Jo\P2_Trial12.trc
DataRate	CameraRate	NumFrames	NumMarkers	Units	OrigDataRate	OrigDataStartFrame	OrigNumFrames
100.00	100.00	       22	19	mm	100.00	1	       653
Frame#	Time	Headset_Front			Headset_Back			Headset_Left			Headset_Right			Left_Shoulder			Right_Shoulder			Sternum			C7			Left Elbow			Right Elbow			Left Wrist			Right Wrist			Left ASIS			Right ASIS			S2			Left Knee			Right Knee			Left Ankle			Right Ankle			
		X1	Y1	Z1	X2	Y2	Z2	X3	Y3	Z3	X4	Y4	Z4	X5	Y5	Z5	X6	Y6	Z6	X7	Y7	Z7	X8	Y8	Z8	X9	Y9	Z9	X10	Y10	Z10	X11	Y11	Z11	X12	Y12	Z12	X13	Y13	Z13	X14	Y14	Z14	X15	Y15	Z15	X16	Y16	Z16	X17	Y17	Z17	X18	Y18	Z18	X19	Y19	Z19	

1	0.000																									16.31760	1028.53894	-1547.88586																			-32.18200	413.03827	-1586.75879				-55.56642	52.90648	-1596.15137				
2	0.010																									14.96694	1029.45801	-1545.13293																			-33.21680	412.72672	-1586.34326				-54.85918	51.70721	-1595.71704				
3	0.020																									14.53941	1029.06287	-1544.61328																			-33.34610	413.35605	-1587.55151				-54.46555	51.78526	-1595.14270				
4	0.030																									13.47858	1029.55664	-1543.49548																			-34.63211	412.67291	-1586.61023				-53.40678	51.64656	-1595.06384				
5	0.040																									11.40130	1029.63525	-1539.52856																			-36.09562	411.63828	-1585.43481				-52.84267	50.16112	-1592.84424				
6	0.050																									11.15022	1029.69519	-1540.06628																			-38.23861	411.36636	-1583.22693				-52.84267	50.16112	-1592.84424				
7	0.060																									10.31923	1031.02551	-1539.29578																			-39.94954	410.61252	-1582.31897				-52.44386	50.10973	-1592.54993				
8	0.070																									9.10635	1031.73572	-1536.63416																			-41.20346	410.86441	-1580.63110				-51.35908	49.95486	-1591.42993				
9	0.080																									9.07624	1032.26587	-1535.47705																			-42.84598	411.87274	-1580.54089				-50.58011	50.62218	-1591.45471				
10	0.090																									8.29059	1032.99976	-1533.18054																			-44.19400	411.86737	-1578.73022				-50.64367	50.07641	-1590.70288				
11	0.100																									7.51523	1034.07263	-1531.18555																			-45.36815	411.70154	-1577.03687				-50.45985	50.30717	-1590.00916				
12	0.110																									6.76865	1034.26697	-1529.46704																			-48.52812	410.64014	-1573.45349				-50.45623	50.77486	-1588.97888				
13	0.120																									5.24789	1035.65002	-1525.53125																			-49.76083	410.76767	-1571.50073				-49.60760	50.44914	-1587.76978				
14	0.130																									4.62367	1036.50916	-1524.63196													-338.50806	997.89526	-1481.17847				-50.92434	411.36026	-1569.83252				-49.31224	50.64266	-1587.04480				
15	0.140																									3.54079	1037.52612	-1522.08948													-341.04871	998.98334	-1477.50977				-52.49706	412.49933	-1568.69067				-49.17300	50.83945	-1586.47131				
16	0.150																									1.97838	1037.78589	-1518.13049				-231.23639	905.02478	-1714.88635							-343.10541	999.23364	-1474.94495				-54.60229	410.90750	-1564.30371				-49.23930	51.09298	-1585.98206				
17	0.160																									-0.47725	1038.99402	-1514.08728				-231.78636	905.15582	-1712.98206							-344.02188	999.48102	-1476.28931				-56.03918	410.12540	-1561.37720				-48.96869	51.88099	-1583.97717				
18	0.170																									-1.45721	1039.45215	-1512.48193				-232.51042	905.72101	-1711.89673							-345.09320	998.78070	-1477.14844				-57.06184	410.78854	-1559.57922				-48.68760	52.01421	-1583.39929				
19	0.180																									-3.62820	1039.17981	-1509.18396				-233.33833	905.70026	-1710.31262							-347.46933	1000.68488	-1471.20471				-60.14159	409.58121	-1555.42017				-49.17937	51.62511	-1582.21863				
20	0.190																									-6.62932	1038.77563	-1505.79688				-234.09956	905.66486	-1708.03186							-349.22748	999.59961	-1471.90369				-61.23818	410.16064	-1553.93225				-48.99261	52.02069	-1581.16101				
21	0.200																									-9.11375	1039.44067	-1504.90308				-235.06451	905.72357	-1706.27722							-350.34659	998.27032	-1473.24072				-62.94328	409.81030	-1550.92078				-49.73463	51.89954	-1579.64734				
22	0.210																									-12.26135	1039.02637	-1500.80676				-235.98547	906.23236	-1704.56384							-351.33871	997.08801	-1473.86182				-64.50851	409.59802	-1547.85254				-49.59815	52.37367	-1578.46875				
